<mxfile host="app.diagrams.net" modified="2024-06-06T08:57:46.981Z" agent="Mozilla/5.0 (Windows NT 10.0; Win64; x64) AppleWebKit/537.36 (KHTML, like Gecko) Chrome/115.0.0.0 Safari/537.36" etag="8dJBm449Ssyy_vI03S_i" version="24.4.14" type="github">
  <diagram name="第 1 页" id="PrILdzgITEaFjyn_vafs">
    <mxGraphModel dx="1050" dy="534" grid="1" gridSize="10" guides="1" tooltips="1" connect="1" arrows="1" fold="1" page="1" pageScale="1" pageWidth="827" pageHeight="1169" math="0" shadow="0">
      <root>
        <mxCell id="0" />
        <mxCell id="1" parent="0" />
        <mxCell id="iHMlJCngF5IpRR38niNu-1" value="Actor" style="shape=umlActor;verticalLabelPosition=bottom;verticalAlign=top;html=1;fontFamily=Helvetica;" vertex="1" parent="1">
          <mxGeometry x="105" y="187.5" width="90" height="155" as="geometry" />
        </mxCell>
        <mxCell id="iHMlJCngF5IpRR38niNu-5" value="系统首页" style="ellipse;" vertex="1" parent="1">
          <mxGeometry x="440" y="40" width="120" height="50" as="geometry" />
        </mxCell>
        <mxCell id="iHMlJCngF5IpRR38niNu-6" value="" style="endArrow=open;startArrow=none;endFill=0;startFill=0;endSize=8;html=1;verticalAlign=bottom;dashed=1;labelBackgroundColor=none;rounded=0;entryX=-0.006;entryY=0.611;entryDx=0;entryDy=0;entryPerimeter=0;" edge="1" parent="1" target="iHMlJCngF5IpRR38niNu-5">
          <mxGeometry y="30" width="160" relative="1" as="geometry">
            <mxPoint x="200" y="240" as="sourcePoint" />
            <mxPoint x="449.5708980849388" y="90.00236227972763" as="targetPoint" />
            <mxPoint as="offset" />
          </mxGeometry>
        </mxCell>
        <mxCell id="iHMlJCngF5IpRR38niNu-10" value="管理员" style="text;html=1;align=center;verticalAlign=middle;resizable=0;points=[];autosize=1;strokeColor=none;fillColor=none;" vertex="1" parent="1">
          <mxGeometry x="180" y="342.5" width="60" height="30" as="geometry" />
        </mxCell>
        <mxCell id="iHMlJCngF5IpRR38niNu-19" value="" style="endArrow=open;startArrow=none;endFill=0;startFill=0;endSize=8;html=1;verticalAlign=bottom;dashed=1;labelBackgroundColor=none;rounded=0;entryX=0;entryY=0.5;entryDx=0;entryDy=0;exitX=1;exitY=0.3333333333333333;exitDx=0;exitDy=0;exitPerimeter=0;" edge="1" parent="1" source="iHMlJCngF5IpRR38niNu-1" target="iHMlJCngF5IpRR38niNu-23">
          <mxGeometry y="30" width="160" relative="1" as="geometry">
            <mxPoint x="240" y="160" as="sourcePoint" />
            <mxPoint x="430" y="215" as="targetPoint" />
            <mxPoint as="offset" />
          </mxGeometry>
        </mxCell>
        <mxCell id="iHMlJCngF5IpRR38niNu-20" value="" style="endArrow=open;startArrow=none;endFill=0;startFill=0;endSize=8;html=1;verticalAlign=bottom;dashed=1;labelBackgroundColor=none;rounded=0;entryX=0;entryY=0.5;entryDx=0;entryDy=0;exitX=1;exitY=0.3333333333333333;exitDx=0;exitDy=0;exitPerimeter=0;" edge="1" parent="1" source="iHMlJCngF5IpRR38niNu-1" target="iHMlJCngF5IpRR38niNu-22">
          <mxGeometry y="30" width="160" relative="1" as="geometry">
            <mxPoint x="260" y="210" as="sourcePoint" />
            <mxPoint x="430" y="295" as="targetPoint" />
            <mxPoint as="offset" />
          </mxGeometry>
        </mxCell>
        <mxCell id="iHMlJCngF5IpRR38niNu-21" value="" style="endArrow=open;startArrow=none;endFill=0;startFill=0;endSize=8;html=1;verticalAlign=bottom;dashed=1;labelBackgroundColor=none;rounded=0;entryX=0;entryY=0.5;entryDx=0;entryDy=0;exitX=1;exitY=0.3333333333333333;exitDx=0;exitDy=0;exitPerimeter=0;" edge="1" parent="1" source="iHMlJCngF5IpRR38niNu-1" target="iHMlJCngF5IpRR38niNu-27">
          <mxGeometry y="30" width="160" relative="1" as="geometry">
            <mxPoint x="200" y="190" as="sourcePoint" />
            <mxPoint x="430" y="375" as="targetPoint" />
            <mxPoint as="offset" />
          </mxGeometry>
        </mxCell>
        <mxCell id="iHMlJCngF5IpRR38niNu-22" value="药品管理" style="ellipse;" vertex="1" parent="1">
          <mxGeometry x="440" y="140" width="120" height="50" as="geometry" />
        </mxCell>
        <mxCell id="iHMlJCngF5IpRR38niNu-23" value="药品分类管理" style="ellipse;" vertex="1" parent="1">
          <mxGeometry x="440" y="90" width="120" height="50" as="geometry" />
        </mxCell>
        <mxCell id="iHMlJCngF5IpRR38niNu-24" value="药品进库管理" style="ellipse;" vertex="1" parent="1">
          <mxGeometry x="440" y="190" width="120" height="50" as="geometry" />
        </mxCell>
        <mxCell id="iHMlJCngF5IpRR38niNu-25" value="药品出库管理" style="ellipse;" vertex="1" parent="1">
          <mxGeometry x="440" y="240" width="120" height="50" as="geometry" />
        </mxCell>
        <mxCell id="iHMlJCngF5IpRR38niNu-26" value="员管理" style="ellipse;" vertex="1" parent="1">
          <mxGeometry x="440" y="292.5" width="120" height="50" as="geometry" />
        </mxCell>
        <mxCell id="iHMlJCngF5IpRR38niNu-27" value="公告管理" style="ellipse;" vertex="1" parent="1">
          <mxGeometry x="440" y="342.5" width="120" height="50" as="geometry" />
        </mxCell>
        <mxCell id="iHMlJCngF5IpRR38niNu-28" value="供应商管理" style="ellipse;" vertex="1" parent="1">
          <mxGeometry x="440" y="392.5" width="120" height="50" as="geometry" />
        </mxCell>
        <mxCell id="iHMlJCngF5IpRR38niNu-29" value="个人信息修改" style="ellipse;" vertex="1" parent="1">
          <mxGeometry x="440" y="450" width="120" height="50" as="geometry" />
        </mxCell>
        <mxCell id="iHMlJCngF5IpRR38niNu-31" value="" style="endArrow=open;startArrow=none;endFill=0;startFill=0;endSize=8;html=1;verticalAlign=bottom;dashed=1;labelBackgroundColor=none;rounded=0;entryX=0;entryY=0.5;entryDx=0;entryDy=0;" edge="1" parent="1" target="iHMlJCngF5IpRR38niNu-24">
          <mxGeometry y="30" width="160" relative="1" as="geometry">
            <mxPoint x="200" y="240" as="sourcePoint" />
            <mxPoint x="450" y="175" as="targetPoint" />
            <mxPoint as="offset" />
          </mxGeometry>
        </mxCell>
        <mxCell id="iHMlJCngF5IpRR38niNu-32" value="" style="endArrow=open;startArrow=none;endFill=0;startFill=0;endSize=8;html=1;verticalAlign=bottom;dashed=1;labelBackgroundColor=none;rounded=0;" edge="1" parent="1" target="iHMlJCngF5IpRR38niNu-25">
          <mxGeometry y="30" width="160" relative="1" as="geometry">
            <mxPoint x="200" y="240" as="sourcePoint" />
            <mxPoint x="460" y="185" as="targetPoint" />
            <mxPoint as="offset" />
          </mxGeometry>
        </mxCell>
        <mxCell id="iHMlJCngF5IpRR38niNu-33" value="" style="endArrow=open;startArrow=none;endFill=0;startFill=0;endSize=8;html=1;verticalAlign=bottom;dashed=1;labelBackgroundColor=none;rounded=0;entryX=0;entryY=0.5;entryDx=0;entryDy=0;" edge="1" parent="1" target="iHMlJCngF5IpRR38niNu-26">
          <mxGeometry y="30" width="160" relative="1" as="geometry">
            <mxPoint x="200" y="240" as="sourcePoint" />
            <mxPoint x="470" y="195" as="targetPoint" />
            <mxPoint as="offset" />
          </mxGeometry>
        </mxCell>
        <mxCell id="iHMlJCngF5IpRR38niNu-34" value="" style="endArrow=open;startArrow=none;endFill=0;startFill=0;endSize=8;html=1;verticalAlign=bottom;dashed=1;labelBackgroundColor=none;rounded=0;entryX=0;entryY=0.5;entryDx=0;entryDy=0;" edge="1" parent="1" target="iHMlJCngF5IpRR38niNu-28">
          <mxGeometry y="30" width="160" relative="1" as="geometry">
            <mxPoint x="200" y="240" as="sourcePoint" />
            <mxPoint x="480" y="205" as="targetPoint" />
            <mxPoint as="offset" />
          </mxGeometry>
        </mxCell>
        <mxCell id="iHMlJCngF5IpRR38niNu-35" value="" style="endArrow=open;startArrow=none;endFill=0;startFill=0;endSize=8;html=1;verticalAlign=bottom;dashed=1;labelBackgroundColor=none;rounded=0;entryX=0;entryY=0.5;entryDx=0;entryDy=0;" edge="1" parent="1" target="iHMlJCngF5IpRR38niNu-29">
          <mxGeometry y="30" width="160" relative="1" as="geometry">
            <mxPoint x="200" y="240" as="sourcePoint" />
            <mxPoint x="490" y="215" as="targetPoint" />
            <mxPoint as="offset" />
          </mxGeometry>
        </mxCell>
      </root>
    </mxGraphModel>
  </diagram>
</mxfile>
